<svg width="1820" height="120" viewBox="0 0 1820 120" fill="none" xmlns="http://www.w3.org/2000/svg">
<path d="M1790 4.20898C1789.58 9.57346 1789.26 14.7276 1789.05 19.6713C1788.95 24.615 1788.9 28.4017 1788.9 31.0313C1788.9 33.3454 1788.95 35.5543 1789.05 37.658C1789.16 39.7618 1789.26 41.5499 1789.37 43.0225H1785.74C1784.06 34.1869 1781.9 27.1921 1779.27 22.038C1776.75 16.8839 1773.7 13.2549 1770.12 11.1512C1766.54 8.94233 1762.34 7.83788 1757.5 7.83788H1753.87V97.9295C1753.87 102.137 1754.29 105.292 1755.13 107.396C1756.08 109.5 1757.76 110.92 1760.18 111.656C1762.6 112.287 1766.12 112.655 1770.75 112.761V115.916C1767.49 115.811 1763.13 115.706 1757.66 115.601C1752.29 115.495 1746.66 115.443 1740.77 115.443C1734.99 115.443 1729.52 115.495 1724.36 115.601C1719.21 115.706 1715.06 115.811 1711.9 115.916V112.761C1716.63 112.655 1720.21 112.287 1722.63 111.656C1725.05 110.92 1726.68 109.5 1727.52 107.396C1728.36 105.292 1728.78 102.137 1728.78 97.9295V7.83788H1725.31C1720.47 7.83788 1716.27 8.94233 1712.69 11.1512C1709.11 13.2549 1706.06 16.8839 1703.54 22.038C1701.01 27.0869 1698.8 34.0817 1696.91 43.0225H1693.28C1693.49 41.5499 1693.6 39.7618 1693.6 37.658C1693.7 35.5543 1693.76 33.3454 1693.76 31.0313C1693.76 28.4017 1693.65 24.615 1693.44 19.6713C1693.33 14.7276 1693.07 9.57346 1692.65 4.20898C1697.49 4.31417 1702.75 4.41935 1708.43 4.52454C1714.21 4.62972 1720 4.68231 1725.78 4.68231C1731.57 4.68231 1736.78 4.68231 1741.4 4.68231C1746.14 4.68231 1751.34 4.68231 1757.02 4.68231C1762.81 4.68231 1768.59 4.62972 1774.38 4.52454C1780.17 4.41935 1785.37 4.31417 1790 4.20898Z" fill="white"/>
<path d="M1640.1 2C1647.04 2 1652.72 3.05186 1657.14 5.15558C1661.66 7.15411 1665.66 9.52079 1669.13 12.2556C1671.23 13.8334 1672.81 14.0438 1673.86 12.8867C1675.02 11.6245 1675.81 8.73189 1676.23 4.20891H1679.86C1679.65 8.31115 1679.49 13.3075 1679.38 19.1979C1679.28 24.9831 1679.23 32.7142 1679.23 42.3913H1675.6C1675.07 37.5528 1674.39 33.4505 1673.55 30.0846C1672.71 26.6135 1671.55 23.5631 1670.08 20.9334C1668.6 18.3038 1666.5 15.9371 1663.76 13.8334C1661.13 11.2038 1658.08 9.25782 1654.61 7.9956C1651.14 6.73336 1647.51 6.10225 1643.73 6.10225C1638.05 6.10225 1633.21 7.62744 1629.21 10.6778C1625.21 13.623 1621.95 17.6727 1619.43 22.8268C1617.01 27.9809 1615.22 33.8187 1614.06 40.3402C1612.91 46.7565 1612.33 53.4358 1612.33 60.3781C1612.33 67.4255 1612.91 74.21 1614.06 80.7315C1615.33 87.1478 1617.22 92.8805 1619.74 97.9294C1622.37 102.978 1625.74 106.975 1629.84 109.921C1633.94 112.866 1638.78 114.338 1644.36 114.338C1647.83 114.338 1651.3 113.707 1654.77 112.445C1658.35 111.078 1661.4 109.132 1663.92 106.607C1668.02 103.452 1670.81 99.5598 1672.28 94.9316C1673.76 90.1982 1674.86 83.9397 1675.6 76.1559H1679.23C1679.23 86.1486 1679.28 94.2479 1679.38 100.454C1679.49 106.555 1679.65 111.709 1679.86 115.916H1676.23C1675.81 111.393 1675.07 108.553 1674.02 107.396C1673.07 106.239 1671.44 106.397 1669.13 107.869C1665.24 110.604 1661.08 113.024 1656.66 115.127C1652.35 117.126 1646.78 118.125 1639.94 118.125C1628.79 118.125 1619.01 115.864 1610.59 111.341C1602.28 106.818 1595.81 100.296 1591.19 91.776C1586.56 83.256 1584.24 73.0004 1584.24 61.0092C1584.24 49.2284 1586.61 38.9202 1591.34 30.0846C1596.18 21.249 1602.76 14.3593 1611.07 9.4156C1619.48 4.47187 1629.16 2 1640.1 2Z" fill="white"/>
<path d="M1567.24 4.20898C1566.82 8.83715 1566.5 13.3075 1566.29 17.6202C1566.19 21.9328 1566.13 25.2461 1566.13 27.5602C1566.13 29.6639 1566.19 31.6625 1566.29 33.5558C1566.4 35.4491 1566.5 37.0269 1566.61 38.2892H1562.98C1561.93 30.6106 1560.3 24.5624 1558.09 20.1446C1555.88 15.6216 1552.98 12.4661 1549.41 10.6779C1545.94 8.78455 1541.84 7.83788 1537.1 7.83788H1530.63C1527.58 7.83788 1525.27 8.10085 1523.69 8.62678C1522.11 9.15271 1521.06 10.2046 1520.54 11.7824C1520.01 13.3601 1519.75 15.7794 1519.75 19.0402V101.085C1519.75 104.346 1520.01 106.765 1520.54 108.343C1521.06 109.921 1522.11 110.973 1523.69 111.498C1525.27 112.024 1527.58 112.287 1530.63 112.287H1538.36C1543.1 112.287 1547.25 111.288 1550.83 109.29C1554.51 107.186 1557.61 103.662 1560.14 98.7184C1562.77 93.7746 1564.77 87.0953 1566.13 78.6805H1569.76C1569.45 82.0464 1569.29 86.4642 1569.29 91.9339C1569.29 94.3531 1569.34 97.7717 1569.45 102.189C1569.55 106.607 1569.87 111.183 1570.39 115.916C1565.03 115.706 1558.98 115.601 1552.25 115.601C1545.52 115.495 1539.52 115.443 1534.26 115.443C1531.63 115.443 1528.27 115.443 1524.16 115.443C1520.06 115.443 1515.64 115.495 1510.91 115.601C1506.18 115.601 1501.39 115.653 1496.55 115.758C1491.71 115.758 1487.14 115.811 1482.83 115.916V112.761C1486.19 112.55 1488.72 112.13 1490.4 111.498C1492.08 110.867 1493.19 109.605 1493.71 107.712C1494.34 105.818 1494.66 102.978 1494.66 99.1917V20.9335C1494.66 17.0416 1494.34 14.2016 1493.71 12.4135C1493.19 10.5201 1492.03 9.25789 1490.24 8.62678C1488.56 7.89048 1486.09 7.46973 1482.83 7.36455V4.20898C1487.14 4.31417 1491.71 4.41935 1496.55 4.52454C1501.39 4.52454 1506.18 4.57713 1510.91 4.68231C1515.64 4.68231 1520.06 4.68231 1524.16 4.68231C1528.27 4.68231 1531.63 4.68231 1534.26 4.68231C1539.1 4.68231 1544.57 4.68231 1550.67 4.68231C1556.88 4.57713 1562.4 4.41935 1567.24 4.20898ZM1542.62 58.1693C1542.62 58.1693 1542.62 58.6952 1542.62 59.747C1542.62 60.7989 1542.62 61.3248 1542.62 61.3248H1515.01C1515.01 61.3248 1515.01 60.7989 1515.01 59.747C1515.01 58.6952 1515.01 58.1693 1515.01 58.1693H1542.62ZM1547.2 37.3425C1546.78 43.3381 1546.57 47.9137 1546.57 51.0692C1546.67 54.2248 1546.73 57.1174 1546.73 59.747C1546.73 62.3767 1546.78 65.2693 1546.88 68.4249C1546.99 71.5804 1547.25 76.156 1547.67 82.1516H1544.04C1543.52 78.4701 1542.52 75.0516 1541.05 71.896C1539.68 68.7404 1537.68 66.216 1535.05 64.3226C1532.42 62.3241 1529 61.3248 1524.8 61.3248V58.1693C1527.95 58.1693 1530.63 57.5381 1532.84 56.2759C1535.05 54.9085 1536.84 53.1729 1538.21 51.0692C1539.68 48.8603 1540.84 46.5462 1541.68 44.127C1542.52 41.7077 1543.15 39.4462 1543.57 37.3425H1547.2Z" fill="white"/>
<path d="M1472.94 4.20898V7.36455C1469.57 7.78529 1467.05 8.67937 1465.36 10.0468C1463.68 11.309 1462.52 13.3601 1461.89 16.2002C1461.37 19.0402 1461.1 23.0372 1461.1 28.1913V116.232C1459.84 116.127 1458.53 116.074 1457.16 116.074C1455.9 116.074 1454.53 116.127 1453.06 116.232L1384.58 29.4536V90.0405C1384.58 95.8258 1384.9 100.296 1385.53 103.452C1386.16 106.502 1387.53 108.711 1389.63 110.078C1391.84 111.341 1395.26 112.235 1399.89 112.761V115.916C1397.89 115.706 1395.26 115.601 1392 115.601C1388.74 115.495 1385.69 115.443 1382.85 115.443C1380.43 115.443 1377.95 115.495 1375.43 115.601C1372.91 115.601 1370.8 115.706 1369.12 115.916V112.761C1372.48 112.235 1375.01 111.341 1376.69 110.078C1378.37 108.816 1379.48 106.765 1380.01 103.925C1380.64 100.98 1380.95 96.9828 1380.95 91.9339V20.9335C1380.95 17.0416 1380.64 14.2016 1380.01 12.4135C1379.48 10.5201 1378.32 9.25789 1376.53 8.62678C1374.85 7.89048 1372.38 7.46973 1369.12 7.36455V4.20898C1370.8 4.31417 1372.91 4.41935 1375.43 4.52454C1377.95 4.62972 1380.43 4.68231 1382.85 4.68231C1385.37 4.68231 1387.79 4.62972 1390.1 4.52454C1392.42 4.41935 1394.52 4.31417 1396.41 4.20898L1457.47 79.4694V30.0847C1457.47 24.2995 1457.16 19.8817 1456.53 16.8313C1455.9 13.6757 1454.48 11.4142 1452.27 10.0468C1450.16 8.67937 1446.8 7.78529 1442.17 7.36455V4.20898C1444.17 4.31417 1446.8 4.41935 1450.06 4.52454C1453.32 4.62972 1456.37 4.68231 1459.21 4.68231C1461.73 4.68231 1464.21 4.62972 1466.63 4.52454C1469.15 4.41935 1471.25 4.31417 1472.94 4.20898Z" fill="white"/>
<path d="M1359.07 4.20898V7.36455C1355.71 7.78529 1353.18 8.67937 1351.5 10.0468C1349.81 11.309 1348.66 13.3601 1348.03 16.2002C1347.5 19.0402 1347.24 23.0372 1347.24 28.1913V116.232C1345.98 116.127 1344.66 116.074 1343.29 116.074C1342.03 116.074 1340.66 116.127 1339.19 116.232L1270.72 29.4536V90.0405C1270.72 95.8258 1271.03 100.296 1271.66 103.452C1272.29 106.502 1273.66 108.711 1275.76 110.078C1277.97 111.341 1281.39 112.235 1286.02 112.761V115.916C1284.02 115.706 1281.39 115.601 1278.13 115.601C1274.87 115.495 1271.82 115.443 1268.98 115.443C1266.56 115.443 1264.09 115.495 1261.56 115.601C1259.04 115.601 1256.94 115.706 1255.25 115.916V112.761C1258.62 112.235 1261.14 111.341 1262.83 110.078C1264.51 108.816 1265.61 106.765 1266.14 103.925C1266.77 100.98 1267.09 96.9828 1267.09 91.9339V20.9335C1267.09 17.0416 1266.77 14.2016 1266.14 12.4135C1265.61 10.5201 1264.46 9.25789 1262.67 8.62678C1260.99 7.89048 1258.51 7.46973 1255.25 7.36455V4.20898C1256.94 4.31417 1259.04 4.41935 1261.56 4.52454C1264.09 4.62972 1266.56 4.68231 1268.98 4.68231C1271.5 4.68231 1273.92 4.62972 1276.24 4.52454C1278.55 4.41935 1280.66 4.31417 1282.55 4.20898L1343.61 79.4694V30.0847C1343.61 24.2995 1343.29 19.8817 1342.66 16.8313C1342.03 13.6757 1340.61 11.4142 1338.4 10.0468C1336.3 8.67937 1332.93 7.78529 1328.3 7.36455V4.20898C1330.3 4.31417 1332.93 4.41935 1336.19 4.52454C1339.45 4.62972 1342.5 4.68231 1345.34 4.68231C1347.87 4.68231 1350.34 4.62972 1352.76 4.52454C1355.28 4.41935 1357.39 4.31417 1359.07 4.20898Z" fill="white"/>
<path d="M1188.49 2C1199.64 2 1209.37 4.2615 1217.68 8.78449C1226.09 13.3075 1232.61 19.829 1237.24 28.349C1241.87 36.7639 1244.18 47.0195 1244.18 59.1159C1244.18 70.8967 1241.82 81.2049 1237.08 90.0405C1232.35 98.8761 1225.72 105.766 1217.2 110.709C1208.79 115.653 1199.16 118.125 1188.33 118.125C1177.18 118.125 1167.4 115.864 1158.98 111.341C1150.67 106.818 1144.2 100.296 1139.58 91.776C1134.95 83.256 1132.63 73.0004 1132.63 61.0092C1132.63 49.2284 1135 38.9202 1139.73 30.0846C1144.57 21.249 1151.15 14.3593 1159.46 9.4156C1167.87 4.47187 1177.55 2 1188.49 2ZM1187.86 4.84002C1181.97 4.84002 1176.81 7.2067 1172.39 11.9401C1168.08 16.6734 1164.72 23.1949 1162.3 31.5046C1159.98 39.8143 1158.83 49.4388 1158.83 60.3781C1158.83 71.5278 1160.14 81.2575 1162.77 89.5671C1165.5 97.7716 1169.13 104.135 1173.66 108.658C1178.28 113.076 1183.39 115.285 1188.96 115.285C1194.85 115.285 1199.95 112.918 1204.27 108.185C1208.68 103.452 1212.05 96.9301 1214.36 88.6205C1216.78 80.2056 1217.99 70.5811 1217.99 59.747C1217.99 48.4921 1216.62 38.7624 1213.89 30.5579C1211.26 22.3534 1207.63 16.0423 1203 11.6245C1198.48 7.10151 1193.43 4.84002 1187.86 4.84002Z" fill="white"/>
<path d="M1077.24 2C1084.18 2 1089.86 3.05186 1094.28 5.15558C1098.8 7.15411 1102.8 9.52079 1106.27 12.2556C1108.38 13.8334 1109.95 14.0438 1111.01 12.8867C1112.16 11.6245 1112.95 8.73189 1113.37 4.20891H1117C1116.79 8.31115 1116.63 13.3075 1116.53 19.1979C1116.42 24.9831 1116.37 32.7142 1116.37 42.3913H1112.74C1112.22 37.5528 1111.53 33.4505 1110.69 30.0846C1109.85 26.6135 1108.69 23.5631 1107.22 20.9334C1105.75 18.3038 1103.64 15.9371 1100.91 13.8334C1098.28 11.2038 1095.23 9.25782 1091.76 7.9956C1088.29 6.73336 1084.66 6.10225 1080.87 6.10225C1075.19 6.10225 1070.35 7.62744 1066.35 10.6778C1062.36 13.623 1059.1 17.6727 1056.57 22.8268C1054.15 27.9809 1052.36 33.8187 1051.21 40.3402C1050.05 46.7565 1049.47 53.4358 1049.47 60.3781C1049.47 67.4255 1050.05 74.21 1051.21 80.7315C1052.47 87.1478 1054.36 92.8805 1056.89 97.9294C1059.52 102.978 1062.88 106.975 1066.99 109.921C1071.09 112.866 1075.93 114.338 1081.5 114.338C1084.97 114.338 1088.44 113.707 1091.91 112.445C1095.49 111.078 1098.54 109.132 1101.07 106.607C1105.17 103.452 1107.96 99.5598 1109.43 94.9316C1110.9 90.1982 1112.01 83.9397 1112.74 76.1559H1116.37C1116.37 86.1486 1116.42 94.2479 1116.53 100.454C1116.63 106.555 1116.79 111.709 1117 115.916H1113.37C1112.95 111.393 1112.22 108.553 1111.16 107.396C1110.22 106.239 1108.59 106.397 1106.27 107.869C1102.38 110.604 1098.23 113.024 1093.81 115.127C1089.5 117.126 1083.92 118.125 1077.08 118.125C1065.93 118.125 1056.15 115.864 1047.74 111.341C1039.43 106.818 1032.96 100.296 1028.33 91.776C1023.7 83.256 1021.39 73.0004 1021.39 61.0092C1021.39 49.2284 1023.75 38.9202 1028.49 30.0846C1033.33 21.249 1039.9 14.3593 1048.21 9.4156C1056.62 4.47187 1066.3 2 1077.24 2Z" fill="white"/>
<path d="M915.303 2C926.453 2 936.182 4.2615 944.492 8.78449C952.907 13.3075 959.428 19.829 964.056 28.349C968.685 36.7639 970.999 47.0195 970.999 59.1159C970.999 70.8967 968.632 81.2049 963.899 90.0405C959.165 98.8761 952.539 105.766 944.019 110.709C935.604 115.653 925.979 118.125 915.145 118.125C903.995 118.125 894.213 115.864 885.798 111.341C877.489 106.818 871.02 100.296 866.391 91.776C861.763 83.256 859.449 73.0004 859.449 61.0092C859.449 49.2284 861.816 38.9202 866.549 30.0846C871.388 21.249 877.962 14.3593 886.272 9.4156C894.686 4.47187 904.364 2 915.303 2ZM914.672 4.84002C908.781 4.84002 903.627 7.2067 899.209 11.9401C894.897 16.6734 891.531 23.1949 889.112 31.5046C886.797 39.8143 885.64 49.4388 885.64 60.3781C885.64 71.5278 886.955 81.2575 889.585 89.5671C892.32 97.7716 895.949 104.135 900.472 108.658C905.1 113.076 910.201 115.285 915.776 115.285C921.667 115.285 926.768 112.918 931.081 108.185C935.498 103.452 938.864 96.9301 941.179 88.6205C943.598 80.2056 944.807 70.5811 944.807 59.747C944.807 48.4921 943.44 38.7624 940.705 30.5579C938.076 22.3534 934.447 16.0423 929.818 11.6245C925.295 7.10151 920.247 4.84002 914.672 4.84002Z" fill="white"/>
<path d="M848.567 4.20898C848.146 9.57346 847.831 14.7276 847.62 19.6713C847.515 24.615 847.463 28.4017 847.463 31.0313C847.463 33.3454 847.515 35.5543 847.62 37.658C847.726 39.7618 847.831 41.5499 847.936 43.0225H844.307C842.624 34.1869 840.468 27.1921 837.838 22.038C835.314 16.8839 832.263 13.2549 828.687 11.1512C825.111 8.94233 820.903 7.83788 816.065 7.83788H812.436V97.9295C812.436 102.137 812.857 105.292 813.698 107.396C814.645 109.5 816.328 110.92 818.747 111.656C821.166 112.287 824.69 112.655 829.318 112.761V115.916C826.057 115.811 821.692 115.706 816.223 115.601C810.858 115.495 805.231 115.443 799.34 115.443C793.555 115.443 788.085 115.495 782.931 115.601C777.777 115.706 773.622 115.811 770.467 115.916V112.761C775.2 112.655 778.776 112.287 781.196 111.656C783.615 110.92 785.245 109.5 786.087 107.396C786.928 105.292 787.349 102.137 787.349 97.9295V7.83788H783.878C779.039 7.83788 774.832 8.94233 771.256 11.1512C767.679 13.2549 764.629 16.8839 762.105 22.038C759.58 27.0869 757.371 34.0817 755.478 43.0225H751.849C752.059 41.5499 752.164 39.7618 752.164 37.658C752.27 35.5543 752.322 33.3454 752.322 31.0313C752.322 28.4017 752.217 24.615 752.007 19.6713C751.901 14.7276 751.639 9.57346 751.218 4.20898C756.056 4.31417 761.316 4.41935 766.996 4.52454C772.781 4.62972 778.566 4.68231 784.351 4.68231C790.137 4.68231 795.343 4.68231 799.971 4.68231C804.705 4.68231 809.911 4.68231 815.591 4.68231C821.377 4.68231 827.162 4.62972 832.947 4.52454C838.732 4.41935 843.939 4.31417 848.567 4.20898Z" fill="white"/>
<path d="M660.216 115.916V112.761C663.582 112.55 666.107 112.13 667.79 111.498C669.473 110.867 670.577 109.605 671.103 107.712C671.734 105.818 672.05 102.978 672.05 99.1917V20.9335C672.05 17.0416 671.734 14.2016 671.103 12.4135C670.577 10.5201 669.42 9.25789 667.632 8.62678C665.949 7.89048 663.477 7.46973 660.216 7.36455V4.20898C663.056 4.31417 666.738 4.41935 671.261 4.52454C675.889 4.62972 680.465 4.68231 684.988 4.68231C689.826 4.68231 694.349 4.62972 698.557 4.52454C702.869 4.41935 706.34 4.31417 708.97 4.20898V7.36455C705.604 7.46973 703.027 7.89048 701.239 8.62678C699.556 9.25789 698.451 10.5201 697.926 12.4135C697.4 14.2016 697.137 17.0416 697.137 20.9335V99.1917C697.137 102.978 697.4 105.818 697.926 107.712C698.557 109.605 699.714 110.867 701.397 111.498C703.08 112.13 705.604 112.55 708.97 112.761V115.916C706.34 115.706 702.869 115.601 698.557 115.601C694.349 115.495 689.826 115.443 684.988 115.443C680.465 115.443 675.889 115.495 671.261 115.601C666.738 115.601 663.056 115.706 660.216 115.916ZM593.318 115.916V112.761C596.684 112.55 599.209 112.13 600.892 111.498C602.575 110.867 603.679 109.605 604.205 107.712C604.836 105.818 605.152 102.978 605.152 99.1917V20.9335C605.152 17.0416 604.836 14.2016 604.205 12.4135C603.679 10.5201 602.522 9.25789 600.734 8.62678C599.051 7.89048 596.579 7.46973 593.318 7.36455V4.20898C596.053 4.31417 599.577 4.41935 603.89 4.52454C608.307 4.62972 613.093 4.68231 618.247 4.68231C622.665 4.68231 627.03 4.62972 631.343 4.52454C635.656 4.41935 639.232 4.31417 642.072 4.20898V7.36455C638.706 7.46973 636.129 7.89048 634.341 8.62678C632.658 9.25789 631.553 10.5201 631.027 12.4135C630.502 14.2016 630.239 17.0416 630.239 20.9335V99.1917C630.239 102.978 630.502 105.818 631.027 107.712C631.659 109.605 632.816 110.867 634.499 111.498C636.182 112.13 638.706 112.55 642.072 112.761V115.916C639.232 115.706 635.656 115.601 631.343 115.601C627.03 115.495 622.665 115.443 618.247 115.443C613.093 115.443 608.307 115.495 603.89 115.601C599.577 115.601 596.053 115.706 593.318 115.916ZM619.983 61.3248V58.1693H682.306V61.3248H619.983Z" fill="white"/>
<path d="M540.623 2.1582C546.829 2.1582 551.615 2.84191 554.981 4.20933C558.347 5.47155 561.24 6.83896 563.659 8.31156C564.921 9.04787 565.921 9.62639 566.657 10.0471C567.498 10.3627 568.287 10.5205 569.024 10.5205C570.076 10.5205 570.812 9.94195 571.232 8.78491C571.758 7.62786 572.179 5.89229 572.495 3.57821H576.124C576.018 5.57674 575.861 7.99601 575.65 10.836C575.545 13.5709 575.44 17.1998 575.335 21.7228C575.335 26.2457 575.335 32.1887 575.335 39.5517H571.706C571.285 34.0821 570.023 28.7702 567.919 23.6161C565.815 18.462 562.818 14.2546 558.926 10.9938C555.139 7.62786 550.458 5.94489 544.884 5.94489C539.835 5.94489 535.68 7.3649 532.419 10.2049C529.158 13.0449 527.528 16.9894 527.528 22.0383C527.528 26.2457 528.58 29.8746 530.683 32.925C532.787 35.8702 535.838 38.7628 539.835 41.6029C543.937 44.4429 548.881 47.8614 554.666 51.8585C559.715 55.1192 564.238 58.38 568.235 61.6407C572.232 64.9015 575.44 68.583 577.859 72.6852C580.278 76.7875 581.488 81.6786 581.488 87.3586C581.488 94.3009 579.647 100.034 575.966 104.557C572.39 109.08 567.656 112.498 561.766 114.812C555.875 117.021 549.406 118.125 542.359 118.125C535.838 118.125 530.631 117.494 526.739 116.232C522.847 114.97 519.586 113.655 516.957 112.288C514.643 110.815 512.854 110.079 511.592 110.079C510.54 110.079 509.751 110.657 509.226 111.814C508.805 112.971 508.437 114.707 508.121 117.021H504.492C504.703 114.497 504.808 111.551 504.808 108.185C504.913 104.819 504.966 100.454 504.966 95.0898C505.071 89.6201 505.123 82.7305 505.123 74.4208H508.752C509.173 81.3631 510.33 87.8846 512.223 93.9853C514.222 99.9809 517.22 104.819 521.217 108.501C525.319 112.182 530.736 114.023 537.468 114.023C541.149 114.023 544.41 113.392 547.25 112.13C550.195 110.762 552.562 108.764 554.35 106.134C556.138 103.505 557.032 100.244 557.032 96.352C557.032 91.9342 555.981 88.0949 553.877 84.8342C551.878 81.5734 549.091 78.5231 545.515 75.683C542.044 72.843 537.994 69.9504 533.366 67.0052C528.422 63.7444 523.794 60.4837 519.481 57.2229C515.169 53.9622 511.697 50.2281 509.068 46.0206C506.543 41.8132 505.281 36.8169 505.281 31.0317C505.281 24.405 506.911 18.9879 510.172 14.7805C513.538 10.4679 517.903 7.3123 523.268 5.31377C528.737 3.21006 534.523 2.1582 540.623 2.1582Z" fill="white"/>
<path d="M490.611 4.20898V7.36455C487.245 7.46973 484.668 7.89048 482.88 8.62678C481.197 9.25789 480.092 10.5201 479.567 12.4135C479.041 14.2016 478.778 17.0416 478.778 20.9335V99.1917C478.778 102.978 479.041 105.818 479.567 107.712C480.198 109.605 481.355 110.867 483.038 111.498C484.721 112.13 487.245 112.55 490.611 112.761V115.916C487.771 115.706 484.195 115.601 479.882 115.601C475.569 115.495 471.204 115.443 466.786 115.443C461.632 115.443 456.846 115.495 452.429 115.601C448.116 115.601 444.592 115.706 441.857 115.916V112.761C445.223 112.55 447.748 112.13 449.431 111.498C451.114 110.867 452.218 109.605 452.744 107.712C453.375 105.818 453.691 102.978 453.691 99.1917V20.9335C453.691 17.0416 453.375 14.2016 452.744 12.4135C452.218 10.5201 451.061 9.25789 449.273 8.62678C447.59 7.89048 445.118 7.46973 441.857 7.36455V4.20898C444.592 4.31417 448.116 4.41935 452.429 4.52454C456.846 4.62972 461.632 4.68231 466.786 4.68231C471.204 4.68231 475.569 4.62972 479.882 4.52454C484.195 4.41935 487.771 4.31417 490.611 4.20898Z" fill="white"/>
<path d="M395.103 4.20898V7.36455C391.526 7.46973 388.791 7.89048 386.898 8.62678C385.11 9.25789 383.9 10.5201 383.269 12.4135C382.638 14.2016 382.323 17.0416 382.323 20.9335V101.085C382.323 104.346 382.533 106.765 382.954 108.343C383.48 109.921 384.426 110.973 385.794 111.498C387.266 112.024 389.423 112.287 392.263 112.287H399.994C403.57 112.287 406.936 111.446 410.092 109.763C413.247 108.08 416.087 105.713 418.612 102.663C421.136 99.5073 423.24 95.7732 424.923 91.4605C426.606 87.1479 427.868 82.362 428.709 77.1027H432.338C432.023 80.679 431.865 85.3072 431.865 90.9872C431.865 93.4065 431.918 96.9302 432.023 101.558C432.128 106.187 432.444 110.972 432.969 115.916C427.605 115.706 421.557 115.601 414.825 115.601C408.093 115.495 402.097 115.443 396.838 115.443C394.209 115.443 390.843 115.443 386.74 115.443C382.638 115.443 378.22 115.495 373.487 115.601C368.754 115.601 363.968 115.653 359.129 115.758C354.291 115.758 349.715 115.811 345.402 115.916V112.761C348.768 112.55 351.293 112.13 352.976 111.498C354.659 110.867 355.763 109.605 356.289 107.712C356.92 105.818 357.236 102.978 357.236 99.1917V20.9335C357.236 17.0416 356.92 14.2016 356.289 12.4135C355.763 10.5201 354.606 9.25789 352.818 8.62678C351.135 7.89048 348.663 7.46973 345.402 7.36455V4.20898C348.032 4.31417 351.556 4.41935 355.974 4.52454C360.496 4.62972 365.282 4.68231 370.331 4.68231C374.96 4.68231 379.483 4.62972 383.9 4.52454C388.423 4.41935 392.157 4.31417 395.103 4.20898Z" fill="white"/>
<path d="M239.857 4.20898C242.592 4.31417 246.169 4.41935 250.586 4.52454C255.004 4.62972 259.422 4.68231 263.84 4.68231C268.889 4.68231 273.78 4.62972 278.513 4.52454C283.247 4.41935 286.612 4.36676 288.611 4.36676C301.654 4.36676 311.384 6.68085 317.8 11.309C324.322 15.9372 327.582 21.8802 327.582 29.138C327.582 32.8195 326.478 36.5536 324.269 40.3403C322.06 44.127 318.642 47.4929 314.013 50.4381C309.385 53.3833 303.39 55.5396 296.027 56.907V57.2226C305.914 57.9589 313.75 59.747 319.536 62.5871C325.321 65.4271 329.476 68.8456 332 72.8427C334.525 76.8397 335.787 80.9946 335.787 85.3072C335.787 91.9339 334.051 97.5087 330.58 102.032C327.109 106.555 322.113 110.026 315.591 112.445C309.07 114.759 301.286 115.916 292.24 115.916C289.715 115.916 286.087 115.864 281.353 115.758C276.62 115.548 270.887 115.443 264.155 115.443C259.527 115.443 255.004 115.495 250.586 115.601C246.169 115.601 242.592 115.706 239.857 115.916V112.761C243.223 112.55 245.748 112.13 247.431 111.498C249.114 110.867 250.218 109.605 250.744 107.712C251.375 105.818 251.691 102.978 251.691 99.1917V20.9335C251.691 17.0416 251.375 14.2016 250.744 12.4135C250.218 10.5201 249.061 9.25789 247.273 8.62678C245.59 7.89048 243.118 7.46973 239.857 7.36455V4.20898ZM286.56 7.36455C282.458 7.36455 279.775 8.25863 278.513 10.0468C277.356 11.8349 276.778 15.4638 276.778 20.9335V99.1917C276.778 102.873 277.041 105.661 277.567 107.554C278.198 109.447 279.249 110.71 280.722 111.341C282.3 111.972 284.614 112.287 287.664 112.287C295.238 112.287 300.76 109.921 304.231 105.187C307.807 100.349 309.596 93.5117 309.596 84.6761C309.596 76.5768 307.544 70.3182 303.442 65.9004C299.445 61.4826 292.766 59.2737 283.404 59.2737H269.993C269.993 59.2737 269.993 58.853 269.993 58.0115C269.993 57.0648 269.993 56.5915 269.993 56.5915H283.562C288.506 56.5915 292.292 55.4344 294.922 53.1203C297.552 50.7011 299.393 47.5455 300.444 43.6536C301.496 39.6566 302.022 35.3965 302.022 30.8736C302.022 23.0898 300.813 17.252 298.393 13.3601C295.974 9.36308 292.03 7.36455 286.56 7.36455Z" fill="white"/>
<path d="M231.582 4.20898V7.36455C228.216 7.78529 225.639 8.67937 223.85 10.0468C222.167 11.309 221.063 13.3601 220.537 16.2002C220.011 19.0402 219.748 23.0372 219.748 28.1913V70.0027C219.748 76.8397 219.275 83.0983 218.328 88.7783C217.382 94.4584 215.699 99.3495 213.279 103.452C210.544 107.975 206.547 111.551 201.288 114.181C196.029 116.81 189.35 118.125 181.25 118.125C176.412 118.125 171.468 117.547 166.419 116.39C161.37 115.338 156.847 113.287 152.85 110.236C149.484 107.396 146.907 104.188 145.119 100.612C143.331 97.0354 142.121 92.828 141.49 87.9894C140.859 83.0457 140.543 77.2079 140.543 70.476V20.9335C140.543 17.0416 140.228 14.2016 139.597 12.4135C139.071 10.5201 137.966 9.25789 136.283 8.62678C134.6 7.89048 132.076 7.46974 128.71 7.36455V4.20898C131.34 4.31417 134.863 4.41935 139.281 4.52454C143.804 4.62972 148.485 4.68231 153.323 4.68231C158.162 4.68231 162.79 4.62972 167.208 4.52454C171.731 4.41935 175.465 4.31417 178.41 4.20898V7.36455C174.834 7.46974 172.099 7.89048 170.206 8.62678C168.418 9.25789 167.208 10.5201 166.577 12.4135C165.946 14.2016 165.63 17.0416 165.63 20.9335V80.4161C165.63 85.6753 165.946 90.3561 166.577 94.4584C167.313 98.4554 168.47 101.821 170.048 104.556C171.731 107.186 173.992 109.184 176.832 110.552C179.672 111.919 183.196 112.603 187.404 112.603C194.767 112.603 200.499 110.867 204.601 107.396C208.809 103.925 211.754 99.1391 213.437 93.0383C215.225 86.8324 216.119 79.7323 216.119 71.7382V30.0847C216.119 24.2995 215.751 19.8817 215.015 16.8313C214.279 13.6757 212.806 11.4142 210.597 10.0468C208.493 8.67937 205.233 7.78529 200.815 7.36455V4.20898C202.813 4.31417 205.443 4.41935 208.704 4.52454C211.964 4.62972 215.015 4.68231 217.855 4.68231C220.379 4.68231 222.851 4.62972 225.27 4.52454C227.795 4.41935 229.899 4.31417 231.582 4.20898Z" fill="white"/>
<path d="M30 4.20898C32.6296 4.31417 36.1534 4.41935 40.5712 4.52454C45.0942 4.62972 49.5645 4.68231 53.9823 4.68231C59.0313 4.68231 63.9224 4.62972 68.6558 4.52454C73.3891 4.41935 76.7551 4.36676 78.7536 4.36676C93.3744 4.36676 104.314 7.25937 111.572 13.0446C118.829 18.8298 122.458 26.298 122.458 35.4491C122.458 39.2358 121.722 43.2329 120.249 47.4403C118.777 51.5426 116.252 55.3818 112.676 58.9582C109.205 62.4293 104.419 65.2693 98.3181 67.4782C92.2173 69.6871 84.5388 70.7915 75.2825 70.7915H59.189V67.636H73.7047C79.9106 67.636 84.5914 66.216 87.747 63.376C91.0077 60.5359 93.2166 56.8018 94.3737 52.1737C95.6359 47.5455 96.267 42.5492 96.267 37.1847C96.267 27.1921 94.7944 19.7239 91.8492 14.7801C88.904 9.83642 83.8551 7.36455 76.7025 7.36455C72.6002 7.36455 69.918 8.25863 68.6558 10.0468C67.4987 11.8349 66.9202 15.4638 66.9202 20.9335V98.245C66.9202 102.347 67.3409 105.398 68.1824 107.396C69.0239 109.395 70.6543 110.71 73.0735 111.341C75.4928 111.972 79.0691 112.34 83.8025 112.445V115.916C80.5417 115.811 76.3343 115.706 71.1802 115.601C66.0261 115.495 60.609 115.443 54.929 115.443C50.406 115.443 45.9882 115.495 41.6756 115.601C37.363 115.706 33.4711 115.811 30 115.916V112.761C33.3659 112.55 35.8904 112.13 37.5734 111.498C39.2563 110.867 40.3608 109.605 40.8867 107.712C41.5178 105.818 41.8334 102.978 41.8334 99.1917V20.9335C41.8334 17.0416 41.5178 14.2016 40.8867 12.4135C40.3608 10.5201 39.2037 9.25789 37.4156 8.62678C35.7326 7.89048 33.2608 7.46973 30 7.36455V4.20898Z" fill="white"/>
</svg>
