<svg width="12" height="12" viewBox="0 0 12 12" fill="none" xmlns="http://www.w3.org/2000/svg">
<path d="M6 7.7885L4.23075 6.01925L4.58463 5.65962L5.75 6.825V2.5H6.25V6.825L7.41537 5.65962L7.76925 6.01925L6 7.7885ZM3.30775 9.5C3.07758 9.5 2.88542 9.42292 2.73125 9.26875C2.57708 9.11458 2.5 8.92242 2.5 8.69225V7.48075H3V8.69225C3 8.76925 3.03204 8.83979 3.09613 8.90387C3.16021 8.96796 3.23075 9 3.30775 9H8.69225C8.76925 9 8.83979 8.96796 8.90387 8.90387C8.96796 8.83979 9 8.76925 9 8.69225V7.48075H9.5V8.69225C9.5 8.92242 9.42292 9.11458 9.26875 9.26875C9.11458 9.42292 8.92242 9.5 8.69225 9.5H3.30775Z" fill="white"/>
</svg>
