<svg width="12" height="12" viewBox="0 0 12 12" fill="none" xmlns="http://www.w3.org/2000/svg">
<path d="M5.30775 9C5.07758 9 4.88542 8.92292 4.73125 8.76875C4.57708 8.61458 4.5 8.42242 4.5 8.19225V2.80775C4.5 2.57758 4.57708 2.38542 4.73125 2.23125C4.88542 2.07708 5.07758 2 5.30775 2H9.19225C9.42242 2 9.61458 2.07708 9.76875 2.23125C9.92292 2.38542 10 2.57758 10 2.80775V8.19225C10 8.42242 9.92292 8.61458 9.76875 8.76875C9.61458 8.92292 9.42242 9 9.19225 9H5.30775ZM5.30775 8.5H9.19225C9.26925 8.5 9.33979 8.46796 9.40387 8.40387C9.46796 8.33979 9.5 8.26925 9.5 8.19225V2.80775C9.5 2.73075 9.46796 2.66021 9.40387 2.59613C9.33979 2.53204 9.26925 2.5 9.19225 2.5H5.30775C5.23075 2.5 5.16021 2.53204 5.09613 2.59613C5.03204 2.66021 5 2.73075 5 2.80775V8.19225C5 8.26925 5.03204 8.33979 5.09613 8.40387C5.16021 8.46796 5.23075 8.5 5.30775 8.5ZM3.80775 10.5C3.57758 10.5 3.38542 10.4229 3.23125 10.2688C3.07708 10.1146 3 9.92246 3 9.69238V3.80775H3.5V9.69238C3.5 9.76929 3.53204 9.83979 3.59613 9.90387C3.66021 9.96796 3.73075 10 3.80775 10H8.19225V10.5H3.80775Z" fill="white"/>
</svg>
