<svg width="24" height="24" viewBox="0 0 24 24" fill="none" xmlns="http://www.w3.org/2000/svg">
<path d="M17.1996 12.9992L16.2996 12.0992C16.1163 11.9159 16.0246 11.6826 16.0246 11.3992C16.0246 11.1159 16.1163 10.8826 16.2996 10.6992C16.4829 10.5159 16.7163 10.4242 16.9996 10.4242C17.2829 10.4242 17.5163 10.5159 17.6996 10.6992L20.2996 13.2992C20.4996 13.4992 20.5996 13.7326 20.5996 13.9992C20.5996 14.2659 20.4996 14.4992 20.2996 14.6992L17.6996 17.2992C17.5163 17.4826 17.2829 17.5742 16.9996 17.5742C16.7163 17.5742 16.4829 17.4826 16.2996 17.2992C16.1163 17.1159 16.0246 16.8826 16.0246 16.5992C16.0246 16.3159 16.1163 16.0826 16.2996 15.8992L17.1996 14.9992L8.99961 14.9992C8.44961 14.9992 7.97878 14.8034 7.58711 14.4117C7.19544 14.0201 6.99961 13.5492 6.99961 12.9992L6.99961 4.99922C6.99961 4.71589 7.09544 4.47839 7.28711 4.28672C7.47878 4.09505 7.71628 3.99922 7.99961 3.99922C8.28294 3.99922 8.52044 4.09505 8.71211 4.28672C8.90378 4.47839 8.99961 4.71589 8.99961 4.99922L8.99961 12.9992L17.1996 12.9992Z" fill="#E3E3E3"/>
</svg>
