<svg width="44" height="44" viewBox="0 0 44 44" fill="none" xmlns="http://www.w3.org/2000/svg">
<g style="mix-blend-mode:exclusion">
<path d="M33.9109 31.2945H24.6566C24.5156 31.2838 24.3761 31.3291 24.2682 31.4205C24.1604 31.5119 24.0928 31.6421 24.0802 31.7829V35.8089H30.6164C32.4369 35.8089 33.9164 33.786 33.9164 31.2989" fill="#1A1311"/>
<path d="M29.5035 7.78906V30.7494C29.5139 30.8895 29.4689 31.0282 29.3782 31.1355C29.2875 31.2429 29.1583 31.3104 29.0184 31.3236H24.9891V11.0825C24.9891 9.26306 27.012 7.78906 29.4991 7.78906" fill="#1A1311"/>
<path d="M24.7221 21.2243H17.9923C17.8517 21.2136 17.7126 21.2588 17.6051 21.35C17.4976 21.4412 17.4304 21.5711 17.4181 21.7115V33.3716H21.4408C21.581 33.3589 21.7107 33.2916 21.8017 33.1842C21.8927 33.0767 21.9377 32.9377 21.927 32.7973V25.7354H23.9521C25.7715 25.7354 27.2521 23.7113 27.2521 21.2188L24.7221 21.2243Z" fill="#1A1311"/>
<path d="M33.3145 31.6734H23.6939C23.5472 31.6625 23.4021 31.7096 23.29 31.8047C23.1778 31.8998 23.1075 32.0352 23.0944 32.1816V36.3682H29.8891C31.7822 36.3682 33.3145 34.2628 33.3145 31.6734Z" fill="#322F2F"/>
<path d="M30.1123 7.23438V31.1044C30.123 31.2502 30.0761 31.3944 29.9817 31.5061C29.8873 31.6177 29.7529 31.688 29.6074 31.7017H25.4186V10.6587C25.4186 8.76668 27.5218 7.23438 30.1123 7.23438Z" fill="#322F2F"/>
<path d="M24.0744 20.9509H17.0795C16.9331 20.9396 16.7881 20.9865 16.6761 21.0814C16.564 21.1764 16.494 21.3117 16.4811 21.458V33.5844H20.6611C20.8068 33.5709 20.9413 33.5008 21.0358 33.3891C21.1302 33.2773 21.177 33.133 21.166 32.9871V25.6457H23.2714C25.1634 25.6457 26.6979 23.5414 26.6979 20.9509H24.0744Z" fill="#322F2F"/>
<path d="M32.7186 32.0446H22.7295C22.5773 32.0333 22.4268 32.0823 22.3105 32.1811C22.1942 32.2799 22.1215 32.4206 22.108 32.5726V36.9187H29.1623C31.1269 36.9187 32.7186 34.7341 32.7186 32.0446Z" fill="#4C4B4B"/>
<path d="M30.7193 6.67578V31.4577C30.7303 31.6092 30.6816 31.7589 30.5835 31.8749C30.4854 31.9909 30.3458 32.0638 30.1946 32.0781H25.8463V10.231C25.8463 8.26748 28.0298 6.67578 30.7193 6.67578Z" fill="#4C4B4B"/>
<path d="M23.4293 20.6853H16.1693C16.0174 20.6737 15.867 20.7225 15.7508 20.8212C15.6347 20.9198 15.5621 21.0603 15.549 21.2122V33.7995H19.8918C20.0431 33.7855 20.1828 33.7126 20.281 33.5966C20.3791 33.4805 20.4278 33.3306 20.4164 33.1791V25.5583H22.601C24.5656 25.5583 26.1585 23.3748 26.1585 20.6842L23.4293 20.6853Z" fill="#4C4B4B"/>
<path d="M32.1244 32.4235H21.7624C21.6042 32.4119 21.4478 32.4632 21.3272 32.5661C21.2065 32.6691 21.1313 32.8154 21.1178 32.9735V37.4835H28.4328C30.4689 37.4835 32.1189 35.2197 32.1189 32.4312" fill="#666666"/>
<path d="M31.3297 6.12109V31.8127C31.3409 31.9707 31.2895 32.1268 31.1866 32.2472C31.0837 32.3677 30.9375 32.4427 30.7797 32.4562H26.2697V9.80719C26.2697 7.76999 28.5324 6.12109 31.322 6.12109" fill="#666666"/>
<path d="M22.7819 20.4118H15.2535C15.0953 20.4 14.9389 20.4512 14.8184 20.5542C14.6978 20.6572 14.6229 20.8038 14.61 20.9618V34.0089H19.1123C19.2692 33.9947 19.4141 33.9193 19.516 33.7992C19.6178 33.679 19.6684 33.5236 19.6568 33.3665V25.4652H21.9228C23.9589 25.4652 25.6111 23.2003 25.6111 20.4118H22.7819Z" fill="#666666"/>
<path d="M31.5283 32.7986H20.8055C20.6421 32.7864 20.4805 32.839 20.3555 32.945C20.2306 33.051 20.1524 33.2019 20.1378 33.3651V38.0302H27.7113C29.8211 38.0302 31.5283 35.6861 31.5283 32.7986Z" fill="#808181"/>
<path d="M31.9373 5.56641V32.1699C31.9489 32.3327 31.8964 32.4936 31.791 32.6182C31.6855 32.7428 31.5355 32.8211 31.373 32.8365H26.7057V9.38341C26.7057 7.27471 29.0487 5.56641 31.9373 5.56641Z" fill="#808181"/>
<path d="M22.1347 20.1424H14.3412C14.1779 20.1299 14.0162 20.1823 13.8913 20.2881C13.7663 20.3939 13.688 20.5447 13.6735 20.7078V34.2224H18.3353C18.4977 34.2076 18.6478 34.1295 18.7531 34.005C18.8585 33.8805 18.9107 33.7196 18.8985 33.5569V25.3751H21.2437C23.3524 25.3751 25.0629 23.0299 25.0629 20.1424H22.1347Z" fill="#808181"/>
<path d="M30.933 33.1775H19.8417C19.673 33.1652 19.5062 33.2197 19.3772 33.3291C19.2483 33.4386 19.1674 33.5942 19.152 33.7627V38.5884H26.9851C29.1653 38.5884 30.933 36.1673 30.933 33.1775Z" fill="#9B9C9D"/>
<path d="M32.5498 5.00781V32.5221C32.5618 32.6907 32.5072 32.8574 32.3978 32.9863C32.2885 33.1152 32.133 33.1961 31.9646 33.2118H27.1334V8.95571C27.1334 6.77441 29.5534 5.00781 32.5443 5.00781" fill="#9B9C9D"/>
<path d="M21.487 19.869H13.4261C13.2573 19.8562 13.0902 19.9105 12.9611 20.02C12.832 20.1296 12.7513 20.2856 12.7365 20.4542V34.4275H17.5577C17.7257 34.4121 17.8809 34.3313 17.9898 34.2024C18.0987 34.0736 18.1525 33.9071 18.1396 33.7389V25.281H20.5663C22.7465 25.281 24.5153 22.861 24.5153 19.869H21.487Z" fill="#9B9C9D"/>
<path d="M30.3382 33.5604H18.8784C18.7042 33.5476 18.5319 33.6036 18.3986 33.7166C18.2652 33.8295 18.1816 33.9903 18.1656 34.1643V39.1495H26.2594C28.5122 39.1495 30.3371 36.6437 30.3371 33.5593" fill="#B6B6B7"/>
<path d="M33.1487 4.45312V32.8782C33.1613 33.0524 33.1051 33.2246 32.9922 33.3578C32.8793 33.4911 32.7187 33.5748 32.5448 33.591H27.5629V8.53192C27.5629 6.27803 30.0665 4.45312 33.1531 4.45312" fill="#B6B6B7"/>
<path d="M20.8418 19.6H12.5159C12.4293 19.5927 12.3422 19.6024 12.2594 19.6288C12.1766 19.6552 12.0999 19.6977 12.0336 19.7538C11.9672 19.8099 11.9126 19.8785 11.8729 19.9558C11.8332 20.033 11.8091 20.1174 11.802 20.2039V34.648H16.7839C16.9578 34.6329 17.1186 34.5496 17.2311 34.4162C17.3437 34.2828 17.3988 34.1103 17.3845 33.9363V25.188H19.8947C22.1475 25.188 23.9757 22.6844 23.9757 19.5978L20.8418 19.6Z" fill="#B6B6B7"/>
<path d="M29.7438 33.9277H17.9177C17.7377 33.9143 17.5596 33.9721 17.422 34.0888C17.2843 34.2055 17.198 34.3716 17.1818 34.5514V39.6961H25.5341C27.8595 39.6961 29.7438 37.11 29.7438 33.9277Z" fill="#CFD0D0"/>
<path d="M33.7612 3.89844V33.2332C33.7741 33.4131 33.716 33.5908 33.5994 33.7284C33.4828 33.8659 33.317 33.9523 33.1375 33.9691H27.9928V8.10704C27.9928 5.78164 30.5756 3.89844 33.7612 3.89844Z" fill="#CFD0D0"/>
<path d="M20.192 19.3302H11.5999C11.4197 19.3162 11.2412 19.3738 11.1032 19.4906C10.9652 19.6073 10.8789 19.7738 10.8629 19.9539V34.8556H16.0043C16.1833 34.8391 16.3486 34.7529 16.4646 34.6157C16.5807 34.4784 16.6382 34.3011 16.6247 34.1219V25.1019H19.2119C21.5373 25.1019 23.4238 22.5169 23.4238 19.3313L20.192 19.3302Z" fill="#CFD0D0"/>
<path d="M29.1512 34.3066H16.9577C16.7724 34.2931 16.5893 34.3528 16.4476 34.473C16.3059 34.5931 16.2169 34.764 16.1998 34.949V40.2543H24.8117C27.2086 40.2543 29.1512 37.589 29.1512 34.3066Z" fill="#E8E9E9"/>
<path d="M34.3702 3.34375V33.5938C34.3833 33.7791 34.3233 33.9623 34.2031 34.104C34.0828 34.2457 33.9118 34.3346 33.7267 34.3517H28.4225V7.68435C28.4225 5.28635 31.0856 3.34375 34.3702 3.34375Z" fill="#E8E9E9"/>
<path d="M19.5445 19.0569H10.6884C10.5027 19.0422 10.3186 19.1015 10.1763 19.2218C10.034 19.3421 9.94487 19.5137 9.92834 19.6993V35.0641H15.2281C15.4127 35.047 15.5831 34.9581 15.7026 34.8165C15.8222 34.6749 15.8813 34.492 15.8672 34.3073V25.0068H18.5347C20.9316 25.0068 22.8775 22.3415 22.8775 19.0569H19.5445Z" fill="#E8E9E9"/>
<path d="M28.5532 34.6813H15.9945C15.8039 34.6675 15.6155 34.7288 15.4695 34.8522C15.3236 34.9755 15.2317 35.1511 15.2135 35.3413V40.8028H24.085C26.5534 40.8028 28.5543 38.0528 28.5543 34.6758" fill="white"/>
<path d="M34.978 2.78516V33.9427C34.9918 34.1334 34.9305 34.3219 34.8072 34.4681C34.6838 34.6142 34.5083 34.7063 34.318 34.7248H28.8499V7.25666C28.8499 4.78496 31.5922 2.78516 34.978 2.78516Z" fill="white"/>
<path d="M18.9006 18.7875H9.77063C9.57948 18.7722 9.39002 18.8329 9.24339 18.9565C9.09675 19.0801 9.00478 19.2565 8.98743 19.4475V35.2776H14.4467C14.6372 35.2605 14.8133 35.1691 14.9368 35.0231C15.0603 34.8771 15.1214 34.6883 15.1067 34.4977V24.9156H17.8567C20.3251 24.9156 22.3293 22.1656 22.3293 18.7875H18.9006Z" fill="white"/>
</g>
</svg>
