<svg width="176" height="130" viewBox="0 0 176 130" fill="none" xmlns="http://www.w3.org/2000/svg">
<path d="M64.75 129.5V111H83.25C80.9375 89.725 71.8417 72.0729 55.9625 58.0438C40.0833 44.0146 21.4292 37 0 37V18.5C19.8875 18.5 38.1562 23.7417 54.8063 34.225C71.4563 44.7083 84.0208 58.8917 92.5 76.775C98.3583 64.2875 106.067 53.226 115.625 43.5906C125.183 33.9552 135.898 25.5917 147.769 18.5H111V0H175.75V64.75H157.25V34.225C142.913 43.0125 130.579 53.8813 120.25 66.8313C109.921 79.7812 103.754 94.5042 101.75 111H120.25V129.5H64.75Z" fill="#121D28"/>
</svg>
