<svg width="1920" height="272" viewBox="0 0 1920 272" fill="none" xmlns="http://www.w3.org/2000/svg">
<g style="mix-blend-mode:difference">
<path d="M1887.23 89.2627C1896.55 89.2627 1904.42 91.4971 1910.82 95.9951C1917.29 100.316 1920.5 107.026 1920.5 116.025C1920.5 124.759 1918.16 132.935 1913.5 140.544L1913.5 140.545C1909.05 148.137 1903.03 155.052 1895.42 161.29C1887.83 167.52 1879.29 173.079 1869.81 177.97L1869.81 177.969C1860.55 182.854 1850.97 187.073 1841.08 190.626L1841.08 190.627C1834.81 192.927 1828.76 194.899 1822.93 196.548C1821.8 204.098 1821.24 211.498 1821.24 218.747C1821.24 231.127 1823.44 239.484 1827.71 243.992C1832.23 248.319 1837.98 250.493 1845 250.493C1850.57 250.493 1857.53 248.533 1865.9 244.558C1874.21 240.611 1882.46 233.578 1890.62 223.42L1890.88 223.099L1891.24 223.291L1896.28 225.95L1896.75 226.197L1896.48 226.651C1892.04 234.008 1886.24 241.133 1879.07 248.028C1871.88 254.939 1863.54 260.621 1854.04 265.075L1854.03 265.079C1844.51 269.321 1834.14 271.438 1822.94 271.438C1813.43 271.438 1804.84 269.653 1797.21 266.072L1797.2 266.07C1789.77 262.484 1783.81 257.214 1779.35 250.266L1779.34 250.25C1775.08 243.065 1772.97 234.328 1772.97 224.065C1772.97 212.268 1774.76 200.144 1778.35 187.692L1778.35 187.685C1782.14 175.236 1787.41 163.233 1794.15 151.676C1800.89 139.892 1809.01 129.33 1818.5 119.99C1827.99 110.422 1838.54 102.964 1850.15 97.6191C1861.77 92.0479 1874.13 89.2627 1887.23 89.2627ZM1880.29 96.5791C1875.86 96.5792 1870.93 99.0295 1865.51 104.091L1865.51 104.092C1860.3 108.928 1855.07 115.538 1849.84 123.936L1849.83 123.94C1844.6 132.112 1839.78 141.504 1835.38 152.119C1831.19 162.729 1827.73 173.781 1825.01 185.277C1824.74 186.516 1824.48 187.751 1824.24 188.981C1829.01 186.717 1833.65 184.306 1838.14 181.745C1845.88 177.33 1852.46 172.478 1857.89 167.193L1857.89 167.188C1866.04 159.474 1872.52 150.55 1877.32 140.411L1877.32 140.407C1882.33 130.061 1884.84 118.944 1884.84 107.049C1884.84 104.846 1884.73 103.043 1884.53 101.636C1884.32 100.216 1884.02 99.2474 1883.65 98.6729L1883.64 98.6592L1883.64 98.6445C1883.25 97.9312 1882.78 97.4207 1882.24 97.0869C1881.7 96.7539 1881.06 96.5791 1880.29 96.5791Z" fill="#E7E7E7" stroke="#EEEEEE"/>
<path d="M1711.18 86.6553L1717.79 89.9805L1718.3 90.2324L1717.99 90.7012C1710.44 102.209 1703.62 114.049 1697.54 126.221L1697.53 126.224C1691.45 138.173 1686.21 150.233 1681.8 162.402L1681.8 162.405C1677.4 174.354 1673.94 185.968 1671.42 197.247V197.249C1669.06 207.615 1667.63 217.294 1667.11 226.287L1667.02 228.076C1666.6 237.808 1667.55 244.788 1669.8 249.099C1670.92 251.243 1672.38 252.831 1674.18 253.885C1675.98 254.94 1678.15 255.479 1680.7 255.479C1688.38 255.478 1695.65 253.508 1702.51 249.562C1709.39 245.383 1715.64 239.883 1721.28 233.055C1726.93 225.992 1731.95 218.265 1736.35 209.875C1740.75 201.255 1744.41 192.415 1747.35 183.354C1750.24 174.197 1752.31 165.474 1753.58 157.187C1745.24 152.736 1737.94 146.654 1731.68 138.945L1731.67 138.938C1725.51 131.088 1722.53 121.998 1722.74 111.692V111.688L1722.77 111.02C1723.08 104.165 1725.1 98.8224 1728.88 95.0596C1732.76 91.1887 1737.73 89.2617 1743.73 89.2617C1747.79 89.2617 1751.3 90.1375 1754.23 91.9111C1757.16 93.6856 1759.48 96.3399 1761.19 99.8477C1764.6 106.825 1765.97 116.229 1765.34 128.019C1764.71 140.462 1762.81 153.456 1759.65 167C1756.71 180.327 1752.49 193.211 1747.02 205.65C1741.75 218.1 1735 229.33 1726.78 239.34L1726.78 239.341C1718.76 249.14 1709.36 256.938 1698.59 262.732L1698.59 262.733C1688 268.541 1675.94 271.438 1662.42 271.438C1650.82 271.438 1641.68 269.437 1635.06 265.381L1635.05 265.374V265.373C1628.47 261.117 1623.78 255.838 1621 249.531L1621 249.522L1620.99 249.513C1618.45 243.025 1617.28 236.419 1617.49 229.7C1617.71 216.094 1621.51 202.169 1628.89 187.932C1636.27 173.705 1646.27 159.487 1658.9 145.278C1671.38 131.252 1685.35 117.542 1700.8 104.148C1696.31 104.946 1692.22 106.604 1688.55 109.123C1684.37 111.991 1680.5 115.078 1676.95 118.385C1673.36 121.724 1669.77 124.622 1666.17 127.075L1666.17 127.074C1662.74 129.562 1659.07 130.819 1655.18 130.819C1651.51 130.819 1648.25 129.791 1645.43 127.73L1645.41 127.718L1645.39 127.702C1642.96 125.561 1640.24 124.503 1637.22 124.503C1634.44 124.503 1632.17 125.639 1630.37 127.954C1628.74 130.331 1626.97 134.371 1625.09 140.115L1622.57 149.07L1622.47 149.436H1615.44L1615.62 148.798L1622.55 124.542L1622.89 123.265C1626.41 110.199 1630.73 101.2 1635.93 96.377L1635.94 96.3701H1635.94C1641.46 91.441 1647.03 88.9297 1652.66 88.9297C1656.72 88.9297 1660.18 89.9445 1663.01 92.001C1665.94 93.7671 1668.98 95.5333 1672.12 97.2998C1675.38 99.0217 1679.6 99.8994 1684.8 99.8994C1688.11 99.8994 1691.64 99.4621 1695.39 98.585C1699.28 97.5022 1703.29 95.666 1707.42 93.0684L1710.51 86.8789L1710.73 86.4307L1711.18 86.6553Z" fill="#E7E7E7" stroke="#EEEEEE"/>
<path d="M1565.91 89.2637C1573.33 89.2637 1579.21 90.7145 1583.53 93.6729C1587.82 96.6127 1590.72 100.468 1592.23 105.23L1592.5 106.081C1593.79 110.37 1594.23 115.14 1593.83 120.385V120.387C1593.41 125.745 1592.35 131.101 1590.66 136.454L1590.65 136.459L1557.57 238.184L1557.57 238.183C1556.63 241.155 1556.03 243.698 1555.78 245.817C1555.52 247.928 1555.6 249.585 1555.98 250.816C1556.47 251.943 1557.17 252.765 1558.06 253.31C1558.96 253.86 1560.1 254.15 1561.5 254.15C1564.03 254.15 1566.85 252.608 1569.96 249.319L1569.97 249.309C1573.25 246.071 1576.89 239.079 1580.89 228.216L1586.56 212.264L1586.67 211.931H1593.71L1593.49 212.591L1585.3 236.858C1582.34 245.985 1578.53 253.04 1573.84 257.986C1569.18 262.908 1564.07 266.389 1558.53 268.414L1558.53 268.415C1553.22 270.43 1547.81 271.439 1542.28 271.439C1533.18 271.439 1526.11 269.317 1521.15 265L1521.15 264.993C1516.4 260.671 1513.85 254.437 1513.42 246.365C1513 238.309 1514.48 228.828 1517.85 217.935L1517.86 217.929L1548.74 122.521C1550.52 116.992 1551.09 112.944 1550.54 110.31C1550.26 109.009 1549.73 108.087 1548.96 107.484C1548.2 106.88 1547.14 106.553 1545.75 106.553C1542.17 106.553 1538.83 108.433 1535.74 112.347C1532.64 116.268 1529.41 122.963 1526.05 132.481L1526.05 132.489L1525.58 132.314L1526.05 132.489L1519.75 149.443L1519.62 149.769H1512.59L1512.82 149.104L1521.64 123.839C1524.6 114.938 1528.3 108 1532.77 103.058L1532.78 103.049C1537.45 98.1258 1542.55 94.6431 1548.1 92.6182C1553.82 90.382 1559.76 89.2637 1565.91 89.2637ZM1593.33 8.81445C1601.17 8.81445 1607.19 10.8251 1611.31 14.9258C1615.65 18.8177 1617.58 24.2997 1617.15 31.2852C1616.72 40.0561 1613.3 47.2745 1606.9 52.9062L1606.89 52.9131C1600.49 58.3136 1592.81 61.0087 1583.88 61.0088C1576.44 61.0088 1570.53 59.1027 1566.21 55.2305L1566.2 55.2207L1566.19 55.2119C1562.08 51.1026 1560.26 45.6327 1560.69 38.8691C1561.12 29.2346 1564.42 21.7807 1570.64 16.5771L1570.64 16.5713C1577.04 11.3975 1584.61 8.8145 1593.33 8.81445Z" fill="#E7E7E7" stroke="#EEEEEE"/>
<path d="M1438.36 2.13379L1397.22 150.224C1403.87 135.701 1410.35 124.089 1416.68 115.398C1423.64 105.831 1430.83 99.1161 1438.28 95.3008C1445.7 91.2756 1453.66 89.2628 1462.14 89.2627C1472.49 89.2627 1479.91 91.598 1484.26 96.4082H1484.26C1488.77 101.173 1491 107.508 1491 115.359C1491 122.954 1489.63 131.205 1486.88 140.107L1486.88 140.11L1456 238.178H1456C1455.06 241.15 1454.49 243.69 1454.29 245.805C1454.08 247.92 1454.24 249.576 1454.73 250.803C1455.22 251.943 1455.9 252.769 1456.74 253.314C1457.59 253.862 1458.65 254.149 1459.94 254.149C1462.47 254.149 1465.3 252.704 1468.41 249.639C1470.03 248.033 1471.74 245.458 1473.51 241.878C1475.28 238.303 1477.11 233.754 1479 228.226L1479 228.22L1484.67 212.263L1484.79 211.931H1491.82L1491.61 212.585L1483.73 236.853C1480.78 246.204 1476.86 253.375 1471.95 258.325L1471.95 258.324C1467.29 263.239 1462.19 266.609 1456.65 268.413C1451.34 270.427 1446.14 271.438 1441.03 271.438C1430.88 271.438 1423.37 269.098 1418.62 264.31L1418.61 264.302L1418.6 264.293C1414.09 259.307 1411.85 252.75 1411.85 244.676C1411.85 236.414 1413.44 227.499 1416.6 217.933L1444.65 128.176L1444.65 128.166L1444.88 127.467C1446.01 123.986 1446.76 120.705 1447.15 117.624L1447.15 117.608L1447.16 117.594C1447.78 114.316 1447.66 111.768 1446.87 109.902L1446.86 109.874L1446.85 109.845C1446.57 108.844 1446.03 108.121 1445.26 107.64C1444.47 107.151 1443.39 106.884 1441.97 106.884C1438.2 106.884 1433.71 109.517 1428.47 115.039C1423.26 120.54 1417.82 128.259 1412.16 138.212C1406.71 148.164 1401.15 159.779 1395.48 173.06L1395.48 173.061C1390.03 186.348 1384.67 200.633 1379.42 215.917C1378.22 219.574 1377.04 223.256 1375.9 226.964L1366.08 262.317C1366.01 262.571 1365.95 262.826 1365.89 263.08L1365.86 263.075L1364.94 266.418L1364.83 266.784H1319.36L1319.54 266.148L1381.94 44.416C1384.03 36.9173 1383.76 31.573 1381.38 28.2197C1380.21 26.5786 1378.11 25.2941 1374.96 24.4229C1371.81 23.5531 1367.69 23.1113 1362.56 23.1113H1361.91L1362.08 22.4805L1363.97 15.499L1364.07 15.1357L1364.45 15.1299C1379.34 14.9086 1392.65 13.6913 1404.38 11.4814C1416.12 9.04943 1427.22 5.73416 1437.69 1.53613L1438.63 1.16016L1438.36 2.13379Z" fill="#E7E7E7" stroke="#EEEEEE"/>
<path d="M1289.81 89.2627C1301.45 89.2628 1310.81 92.389 1317.86 98.6875C1325.11 104.764 1328.75 112.438 1328.75 121.677C1328.75 127.739 1327.37 133.685 1324.61 139.51L1324.6 139.517C1321.84 145.124 1318.01 149.837 1313.12 153.651L1313.11 153.654C1308.4 157.268 1303.04 159.076 1297.05 159.076C1291.89 159.076 1287.46 157.37 1283.79 153.956L1283.78 153.945L1283.77 153.934C1280.3 150.275 1278.59 145.376 1278.59 139.295C1278.59 130.095 1281.47 122.218 1287.23 115.694V115.693C1292.97 109.197 1299.53 104.884 1306.9 102.779C1305.36 100.921 1303.48 99.5051 1301.26 98.5312L1301.26 98.5283L1301.25 98.5244C1299.03 97.4589 1296.17 96.9112 1292.64 96.9111C1285.03 96.9111 1277.48 100.379 1269.98 107.414L1269.97 107.419C1262.47 114.24 1255.67 123.496 1249.6 135.204C1243.74 146.91 1239.02 160.058 1235.46 174.651C1231.9 189.238 1230.12 204.269 1230.12 219.744C1230.12 231.447 1232.32 239.835 1236.62 245.021C1240.93 249.997 1246.56 252.487 1253.57 252.487C1260.18 252.487 1266.92 250.417 1273.79 246.244C1280.63 242.09 1287.62 234.515 1294.74 223.462L1294.97 223.109L1295.36 223.272L1301.66 225.932L1302.18 226.151L1301.9 226.642C1297.68 233.994 1292.19 241.117 1285.44 248.012C1278.89 254.926 1271.17 260.612 1262.3 265.069L1262.29 265.071C1253.6 269.32 1243.76 271.438 1232.77 271.438C1217.97 271.438 1205.76 267.309 1196.2 259.017L1196.2 259.012C1186.6 250.463 1181.85 237.338 1181.85 219.744C1181.85 208.836 1183.43 197.379 1186.59 185.376L1186.6 185.368C1189.97 173.364 1194.71 161.694 1200.82 150.36C1206.93 138.797 1214.42 128.454 1223.27 119.333C1232.14 110.205 1242.16 102.967 1253.35 97.6221C1264.56 92.0478 1276.71 89.2627 1289.81 89.2627Z" fill="#E7E7E7" stroke="#EEEEEE"/>
<path d="M1167.52 89.2627C1175.83 89.2627 1182.28 91.8508 1186.81 97.0811C1191.31 102.283 1193.55 108.832 1193.55 116.689C1193.55 122.971 1192.17 128.813 1189.4 134.205L1189.4 134.204C1186.84 139.372 1183.22 143.644 1178.53 147.015L1178.53 147.018C1174.03 150.183 1168.88 151.763 1163.11 151.763C1156.93 151.763 1152.06 150.073 1148.58 146.632L1148.57 146.62C1145.09 142.955 1143.39 137.83 1143.39 131.316C1143.39 126.26 1144.42 121.588 1146.49 117.31L1146.91 116.459C1149.25 111.746 1152.45 107.705 1156.49 104.338C1160.09 101.336 1164.04 99.223 1168.33 98C1168.22 97.9599 1168.1 97.9199 1167.99 97.8799C1167.42 97.6811 1166.75 97.5762 1165.95 97.5762C1161.85 97.5762 1157.42 98.8728 1152.64 101.504C1147.9 104.114 1143.01 108.816 1137.99 115.656C1132.98 122.489 1127.63 131.986 1121.97 144.16C1116.52 156.322 1110.85 171.922 1104.98 190.966L1104.98 190.967C1103.28 196.612 1101.56 202.617 1099.82 208.98L1085.76 266.403L1085.67 266.785H1040.19L1040.36 266.155L1078.81 122.544C1079.54 119.57 1080 117.049 1080.21 114.978C1080.42 112.897 1080.36 111.302 1080.07 110.166L1080.06 110.143L1080.06 110.119C1079.86 108.871 1079.4 107.998 1078.73 107.432C1078.06 106.865 1077.11 106.552 1075.82 106.552C1072.24 106.552 1068.91 108.432 1065.82 112.346L1065.81 112.356C1062.72 116.053 1059.38 122.742 1055.81 132.486L1049.83 149.435L1049.71 149.769H1042.67L1042.89 149.108L1051.4 123.844L1051.4 123.836C1054.57 114.934 1058.38 107.997 1062.85 103.057C1067.31 98.1288 1072.31 94.6431 1077.86 92.6172C1083.58 90.3819 1089.42 89.2627 1095.36 89.2627C1102.14 89.2627 1107.41 90.7127 1111.1 93.6855C1114.77 96.4174 1117.25 100.172 1118.53 104.924C1119.81 109.64 1120.23 114.796 1119.81 120.385C1119.6 125.731 1118.86 131.076 1117.59 136.419L1117.59 136.422L1116.86 139.393C1120.58 129.993 1124.29 122.117 1128.02 115.771L1128.02 115.77C1133.71 106.206 1139.64 99.375 1145.82 95.3281L1145.83 95.3242C1152.22 91.2808 1159.45 89.2627 1167.52 89.2627Z" fill="#E7E7E7" stroke="#EEEEEE"/>
<path d="M986.098 29.2295L998.701 238.321H998.702C999.329 246.255 1001.2 251.638 1004.21 254.613C1007.52 257.445 1010.67 258.925 1013.68 259.137L1014.24 259.177L1014.14 259.729L1012.88 266.378L1012.79 266.82L1012.34 266.783C1007.11 266.342 1000.09 266.12 991.271 266.12H991.258V266.119C982.648 265.898 974.46 265.787 966.691 265.787C957.242 265.787 948.317 265.898 939.919 266.119L939.906 266.12C931.51 266.12 924.698 266.342 919.466 266.783L918.81 266.838L918.933 266.191L920.192 259.543L920.267 259.154L920.662 259.137C930.718 258.695 937.725 256.816 941.799 253.595C943.895 251.91 945.427 249.277 946.354 245.634C947.283 241.988 947.599 237.362 947.285 231.739V231.736L944.612 177.692H877.259L849.567 219.025L849.564 219.028C843.064 228.54 839.772 236.198 839.567 242.034V242.035C839.465 244.844 839.978 247.274 841.085 249.344C842.189 251.409 843.9 253.144 846.242 254.544L846.691 254.785C851.387 257.249 857.669 258.709 865.565 259.137L866.163 259.169L866.024 259.751L864.449 266.4L864.354 266.805L863.938 266.784C855.12 266.341 847.461 266.12 840.959 266.12H840.95L840.941 266.119C834.644 265.898 828.663 265.787 822.997 265.787C818.172 265.787 814.193 265.898 811.058 266.118L811.04 266.12H811.022C807.895 266.12 804.66 266.34 801.319 266.78L800.634 266.871L800.763 266.191L802.023 259.543L802.08 259.242L802.374 259.156C806.098 258.065 809.617 256.318 812.935 253.912C816.045 251.503 819.693 247.878 823.879 243.021C827.856 238.162 832.465 231.863 837.709 224.118L969.112 28.9805L969.276 28.7373L969.568 28.7617C972.286 28.9822 975.003 29.0918 977.721 29.0918C980.65 29.0918 983.259 28.9815 985.551 28.7617L986.066 28.7129L986.098 29.2295ZM882.384 170.044H944.233L939.981 84.0713L882.384 170.044Z" fill="#E7E7E7" stroke="#EEEEEE"/>
<path d="M688.721 2.13379L643.117 166.28C649.439 165.212 654.611 163.277 658.649 160.491C664.053 156.543 668.307 151.833 671.419 146.361L671.426 146.349C674.768 140.84 677.483 135 679.572 128.829L679.575 128.822L679.577 128.815C681.89 122.605 684.204 116.725 686.518 111.178C688.854 105.354 692.153 100.632 696.422 97.0283C699.821 94.1151 703.238 92.0822 706.675 90.9492L706.683 90.9473C710.286 89.8293 713.489 89.2627 716.285 89.2627C726.68 89.2628 734.314 92.4 739.06 98.7715C743.963 104.851 746.304 112.056 746.091 120.359V120.366C745.878 125.747 744.602 130.689 742.261 135.187C740.122 139.699 737.015 143.208 732.941 145.698C729.067 148.196 724.453 149.436 719.121 149.436C712.304 149.436 707.009 147.522 703.317 143.628L703.298 143.606C699.863 139.529 698.243 134.871 698.453 129.654C698.453 122.673 700.591 116.469 704.863 111.061C708.969 105.863 713.679 101.809 718.993 98.9092C718.488 98.305 717.928 97.8435 717.312 97.5186C716.551 97.1171 715.687 96.9111 714.709 96.9111C712.032 96.9112 709.684 97.3454 707.656 98.2012C705.603 99.0677 703.647 100.261 701.791 101.784C698.09 104.821 695.088 109.176 692.8 114.881C690.49 120.64 688.076 126.842 685.556 133.488C683.233 139.945 680.278 146.069 676.689 151.858C673.287 157.687 668.611 162.505 662.669 166.311L662.658 166.318L662.657 166.317C660.721 167.485 658.587 168.448 656.258 169.211C658.432 169.335 660.601 169.502 662.764 169.714H662.763C672.047 170.383 680.19 172.277 687.183 175.406H687.182C694.418 178.551 699.756 183.499 703.172 190.247L703.506 190.869C706.865 197.36 707.477 205.816 705.431 216.181L700.705 240.781L700.704 240.784C700.182 243.428 699.898 245.643 699.847 247.434C699.795 249.233 699.98 250.562 700.359 251.463C700.743 252.373 701.307 253.033 702.045 253.472C702.789 253.913 703.745 254.149 704.94 254.149C707.466 254.149 710.284 252.607 713.401 249.318C716.68 245.86 720.118 238.863 723.688 228.228L723.691 228.22L729.364 212.263L729.482 211.931H736.51L736.298 212.585L728.42 236.853C725.555 245.704 721.688 252.707 716.802 257.835L716.325 258.325C711.446 263.249 706.023 266.619 700.058 268.42C694.336 270.431 688.505 271.438 682.567 271.438C672.167 271.438 664.63 268.186 660.097 261.581L660.092 261.574C655.574 254.765 654.65 245.076 657.183 232.609L657.184 232.606L662.54 207.009L662.542 207C665.266 195.063 664.591 186.614 660.739 181.481L660.731 181.472L661.139 181.182L660.731 181.471C658.917 178.918 655.914 176.806 651.663 175.165C648.794 174.058 645.369 173.172 641.387 172.509L615.298 266.418L615.196 266.784H569.725L569.903 266.148L632.297 44.416C634.387 36.9172 634.124 31.573 631.74 28.2197C630.574 26.5786 628.467 25.2941 625.318 24.4229C622.175 23.5531 618.049 23.1113 612.926 23.1113H612.272L612.443 22.4805L614.334 15.499L614.433 15.1357L614.81 15.1299C629.703 14.9086 643.014 13.6912 654.744 11.4814C666.478 9.04944 677.581 5.73416 688.053 1.53613L688.991 1.16016L688.721 2.13379Z" fill="#E7E7E7" stroke="#EEEEEE"/>
<path d="M559.441 89.2627C567.745 89.2627 574.2 91.8508 578.727 97.0811C583.229 102.283 585.466 108.832 585.466 116.689C585.466 122.971 584.083 128.813 581.314 134.205L581.313 134.204C578.756 139.372 575.133 143.644 570.447 147.015L570.443 147.018C565.943 150.183 560.8 151.763 555.03 151.763C548.846 151.763 543.978 150.073 540.498 146.632L540.486 146.62C537.012 142.955 535.308 137.83 535.308 131.316C535.308 126.26 536.338 121.588 538.403 117.31L538.83 116.459C541.171 111.746 544.365 107.705 548.407 104.338C552.011 101.336 555.96 99.223 560.248 98C560.134 97.9599 560.02 97.9199 559.906 97.8799C559.341 97.6812 558.664 97.5762 557.866 97.5762C553.771 97.5762 549.337 98.8728 544.557 101.504C539.814 104.114 534.928 108.816 529.908 115.656C524.894 122.489 519.553 131.986 513.888 144.16C508.438 156.322 502.773 171.922 496.896 190.966C495.196 196.609 493.479 202.612 491.742 208.974L477.681 266.403L477.588 266.785H432.112L432.28 266.155L470.726 122.544C471.456 119.57 471.922 117.049 472.129 114.978C472.337 112.897 472.278 111.302 471.984 110.166L471.979 110.143L471.975 110.119C471.777 108.871 471.32 107.998 470.649 107.432C469.978 106.865 469.028 106.552 467.742 106.552C464.162 106.552 460.827 108.432 457.735 112.346L457.727 112.356C454.635 116.053 451.297 122.742 447.729 132.486L441.743 149.435L441.626 149.769H434.589L434.811 149.108L443.319 123.844L443.321 123.836C446.486 114.934 450.296 107.997 454.767 103.057C459.226 98.1288 464.229 94.6431 469.776 92.6172C475.501 90.3819 481.336 89.2627 487.279 89.2627C494.057 89.2627 499.329 90.7127 503.021 93.6855C506.689 96.4174 509.163 100.172 510.45 104.924C511.728 109.64 512.15 114.796 511.727 120.385C511.514 125.731 510.775 131.076 509.509 136.419L509.508 136.422L508.779 139.393C512.494 129.993 516.212 122.117 519.936 115.771L519.938 115.77C525.63 106.206 531.559 99.375 537.739 95.3281L537.746 95.3242C544.134 91.2808 551.371 89.2627 559.441 89.2627Z" fill="#E7E7E7" stroke="#EEEEEE"/>
<path d="M367.126 89.2627C383.401 89.2627 396.047 93.9485 404.988 103.381H404.987C414.139 112.813 418.675 126.586 418.675 144.614C418.675 154.851 417.304 165.746 414.566 177.299C412.036 188.865 408.032 200.207 402.553 211.322C397.071 222.444 390.216 232.565 381.992 241.686L381.993 241.687C373.966 250.6 364.356 257.841 353.168 263.408L353.164 263.41C342.164 268.766 329.798 271.438 316.076 271.438C299.801 271.438 287.053 266.753 277.903 257.325L277.899 257.32C268.958 247.888 264.527 234.115 264.527 216.087C264.527 205.851 265.793 194.956 268.32 183.402L268.322 183.394C271.062 171.831 275.172 160.493 280.65 149.38C286.132 138.259 292.88 128.247 300.895 119.347L301.671 118.496C309.732 109.762 319.084 102.804 329.723 97.624C340.932 92.047 353.403 89.2627 367.126 89.2627ZM365.551 96.9111C360.938 96.9111 355.916 99.8778 350.484 106.048L350.485 106.049C345.271 111.99 340.04 120.039 334.801 130.208C329.771 140.379 325.158 151.772 320.963 164.386C316.979 176.996 313.728 190.05 311.211 203.547C308.905 216.817 307.753 229.529 307.753 241.685C307.753 249.634 308.592 255.294 310.216 258.736L310.39 259.053C311.269 260.607 312.313 261.762 313.513 262.541C314.789 263.37 316.269 263.79 317.968 263.79C322.592 263.79 327.51 261.03 332.724 255.31C337.937 249.368 343.06 241.431 348.088 231.486C353.116 221.54 357.624 210.372 361.608 197.982L361.609 197.979C365.803 185.368 369.159 172.315 371.676 158.817C374.192 145.326 375.449 132.281 375.449 119.682C375.449 115.042 375.214 111.191 374.746 108.122C374.277 105.044 373.581 102.793 372.687 101.325L372.68 101.314L372.674 101.304C371.867 99.8147 370.873 98.7226 369.7 98.001C368.529 97.2802 367.152 96.9112 365.551 96.9111Z" fill="#E7E7E7" stroke="#EEEEEE"/>
<path d="M317.181 31.0371L315.605 37.6855L315.536 37.9775L315.246 38.0537C311.087 39.1507 307.029 40.7972 303.072 42.9941C299.147 45.1735 295.2 48.5641 291.234 53.1875C287.278 57.8009 282.991 64.411 278.38 73.0342L179.118 268.174L178.979 268.446H161.848L161.79 268.012L142.537 121.167L58.416 268.195L58.2715 268.446H41.1514L41.0996 268.006L16.2051 58.9053L16.2041 58.8975C15.3675 50.7334 13.1802 45.3648 9.76953 42.6133C6.24354 39.7689 2.97733 38.2812 -0.0351562 38.0693L-0.62207 38.0283L-0.486328 37.4551L1.08887 30.8066L1.18457 30.4053L1.59668 30.4219C6.84537 30.6434 13.4607 30.8653 21.4424 31.0869C29.4205 31.3084 37.5039 31.4189 45.6924 31.4189C54.0911 31.4189 61.7535 31.3083 68.6797 31.0869H68.6807C75.8218 30.8653 81.8063 30.6443 86.6348 30.4229L87.2969 30.3916L87.1445 31.0371L85.5684 37.6855L85.4834 38.0449L85.1152 38.0693C78.4631 38.5079 73.9048 40.4745 71.2979 43.8594C70.1221 45.4117 69.3213 47.9594 68.957 51.583C68.594 55.1941 68.6693 59.8108 69.1924 65.4424L84.2451 208.043L141.031 109.681L134.375 58.9111V58.9102C133.326 50.7222 131.449 45.3246 128.836 42.5684C126.144 39.728 123.624 38.2747 121.277 38.0684L120.701 38.0176L120.834 37.4551L122.41 30.8066L122.506 30.4033L122.919 30.4229C127.747 30.6443 133.837 30.8653 141.188 31.0869H141.188C148.745 31.3084 156.304 31.4189 163.862 31.4189C173.942 31.4189 183.286 31.3084 191.895 31.0869C200.506 30.8653 207.541 30.6434 213 30.4219L213.659 30.3955L213.507 31.0371L211.932 37.6855L211.844 38.0537L211.466 38.0703C200.979 38.5128 193.996 40.3936 190.353 43.5918C188.688 45.1441 187.563 47.7002 187.046 51.3535C186.562 54.7762 186.619 59.1106 187.231 64.3682L187.361 65.4316L187.362 65.4355L203.897 202.812L268.037 78.2305C273.493 67.6038 276.064 59.5027 275.859 53.8779V53.8594C275.859 51.0447 275.295 48.6984 274.193 46.7969C273.094 44.899 271.442 43.4125 269.211 42.3428L269.197 42.3369L269.185 42.3301C264.871 39.9463 258.447 38.512 249.863 38.0703L249.265 38.0391L249.402 37.4551L250.979 30.8066L251.077 30.3916L251.503 30.4229C254.437 30.6439 258.318 30.8654 263.147 31.0869H263.146C268.183 31.0872 273.427 31.198 278.88 31.4189H292.745C297.57 31.4189 301.866 31.3088 305.636 31.0879H305.638C309.628 30.8664 313.303 30.6443 316.662 30.4229L317.337 30.3789L317.181 31.0371Z" fill="#E7E7E7" stroke="#EEEEEE"/>
</g>
</svg>
